<svg xmlns="http://www.w3.org/2000/svg" width="138" height="49" fill="none" viewBox="0 0 138 49"><path fill="#fff" fill-rule="evenodd" d="M83.1 18.83c-.37-2.29-1.68-3.45-4.18-3.45h-7.2c-2.5 0-3.81 1.16-4.17 3.45a7.05 7.05 0 0 0-.07.83V33.3h4.5V21.23c0-.93.33-1.3 1.2-1.3h4.28c.79 0 1.2.37 1.2 1.3V33.3h4.5V19.66c0-.26-.03-.56-.06-.83zM61 33.3h4.5V15.38H61V33.3zM52.74 8.9h-4.5v24.42h4.5V19.94h4.32V15.4h-4.32V8.9zM41.8 33.3h4.5V8.9h-4.5V33.3zM11.24 21.22c0-.96-.5-1.3-1.18-1.3H5.78c-.85 0-1.28.4-1.28 1.27v7.56h5.54c.79 0 1.2-.5 1.2-1.3v-6.23zm4.44-2.12c.03.23.06.5.06.73v8.96c0 .96-.2 1.73-.59 2.39-.85 1.53-1.87 2.12-3.51 2.12H0L0 8.9h4.5v6.5h7.2c.3 0 .6.02.86.1 1.7.36 2.89 1.68 3.12 3.6zm13.21 8.35c0 .94-.32 1.3-1.2 1.3h-4.27c-.79 0-1.2-.36-1.2-1.3V15.38h-4.5v13.64c0 .27.03.56.06.83.36 2.3 1.68 3.45 4.18 3.45h7.2c2.5 0 3.81-1.16 4.17-3.45.04-.27.07-.56.07-.83V15.38h-4.5v12.07zm6.48 5.88h4.5V15.41h-4.5v17.92z" clip-rule="evenodd"/><mask id="a" width="48" height="49" x="62" y="0" maskUnits="userSpaceOnUse"><path fill="#fff" fill-rule="evenodd" d="M62.1.15v8.68h3.02v-5.6h41.61V45.8h-41.6v-5.68H62.1v8.77h47.66V.15H62.1z" clip-rule="evenodd"/></mask><g mask="url(#a)"><path fill="url(#b)" fill-rule="evenodd" d="M62.1.15v8.68h3.02v-5.6h41.61V45.8h-41.6v-5.68H62.1v8.77h47.66V.15H62.1z" clip-rule="evenodd"/></g><defs><linearGradient id="b" x1="62.1" x2="109.76" y1="48.89" y2="48.89" gradientUnits="userSpaceOnUse"><stop stop-color="#4FE2C1"/><stop offset="1" stop-color="#234FDA"/></linearGradient></defs></svg>